<?xml version="1.0" encoding="iso-8859-1"?>
<!-- Generator: Adobe Illustrator 19.0.0, SVG Export Plug-In . SVG Version: 6.00 Build 0)  -->
<svg version="1.1" id="Capa_1" xmlns="http://www.w3.org/2000/svg" xmlns:xlink="http://www.w3.org/1999/xlink" x="0px" y="0px"
	 viewBox="0 0 512.005 512.005" style="enable-background:new 0 0 512.005 512.005;" xml:space="preserve">
<rect x="227.778" y="287.694" style="fill:#95ABB0;" width="89.511" height="207.771"/>
<g>
	<rect x="227.778" y="287.694" style="fill:#78878C;" width="39.257" height="207.771"/>
	<rect x="227.778" y="284.554" style="fill:#78878C;" width="89.511" height="45.643"/>
</g>
<rect y="270.933" style="fill:#FFCA3B;" width="512.005" height="28.266"/>
<rect y="270.933" style="fill:#E5B02C;" width="221.413" height="28.265"/>
<path style="fill:#0086CC;" d="M511.998,127.251V270.93H185.381L158.946,62.081l-5.758-45.541h248.109
	c36.778,0,69.369,17.944,89.49,45.541C504.136,80.37,511.998,102.889,511.998,127.251z"/>
<path style="fill:#414551;" d="M263.889,127.251V270.93H42.477V127.251c0-61.14,49.572-110.711,110.711-110.711
	c41.458,0,77.587,22.791,96.557,56.534C258.749,89.081,263.889,107.569,263.889,127.251z"/>
<path style="fill:#027AAF;" d="M320.972,16.544h-95.788c69.551,24.191,58.525,87.69,57.61,173.086
	c-0.059,5.493,4.392,9.979,9.885,9.979h40.311L320.972,16.544"/>
<path style="fill:#C1101D;" d="M306.37,200.264h17.691c4.655,0,8.428-3.773,8.428-8.428V94.672c0-4.655,3.773-8.428,8.428-8.428
	h52.237c4.655,0,8.428-3.773,8.428-8.428V24.968c0-4.655-3.773-8.428-8.428-8.428H330.71c-18.097,0-32.767,14.67-32.767,32.767
	v142.529C297.942,196.491,301.715,200.264,306.37,200.264z"/>
<path style="fill:#C0C2D0;" d="M263.889,127.251v143.658H96.948V73.073h152.798C258.749,89.081,263.889,107.569,263.889,127.251z"/>
<polygon style="fill:#D0D7DD;" points="263.889,172.007 263.889,270.93 96.969,270.93 96.99,270.909 205.963,172.017 
	205.974,172.007 "/>
<path style="fill:#E6EBEF;" d="M263.889,127.251v71.787l-14.081,12.783l-43.845-39.804L96.948,73.073h152.798
	C258.749,89.081,263.889,107.569,263.889,127.251z"/>
<path style="fill:#C0C2D0;" d="M263.889,127.251V270.93h-67.003V127.251c0-19.682-5.14-38.171-14.144-54.178h67.003
	C258.749,89.081,263.889,107.569,263.889,127.251z"/>
<g>
</g>
<g>
</g>
<g>
</g>
<g>
</g>
<g>
</g>
<g>
</g>
<g>
</g>
<g>
</g>
<g>
</g>
<g>
</g>
<g>
</g>
<g>
</g>
<g>
</g>
<g>
</g>
<g>
</g>
</svg>
