<?xml version="1.0" encoding="iso-8859-1"?>
<!-- Generator: Adobe Illustrator 19.0.0, SVG Export Plug-In . SVG Version: 6.00 Build 0)  -->
<svg version="1.1" id="Layer_1" xmlns="http://www.w3.org/2000/svg" xmlns:xlink="http://www.w3.org/1999/xlink" x="0px" y="0px"
	 viewBox="0 0 512 512" style="enable-background:new 0 0 512 512;" xml:space="preserve">
<path style="fill:#A9F0F0;" d="M107.277,129.627c-46.815,0-84.765,37.951-84.765,84.765v205.859h307.872V129.627H107.277z"/>
<rect x="48.119" style="fill:#F7BA35;" width="124.19" height="65.42"/>
<g>
	<rect x="157.309" style="fill:#E6E6E6;" width="30" height="247.03"/>
	<rect x="165.829" y="387.32" style="fill:#E6E6E6;" width="64.709" height="124.68"/>
</g>
<circle style="fill:#F4F4F4;" cx="172.309" cy="247.03" r="25.883"/>
<rect x="22.512" y="354.38" style="fill:#64DDE0;" width="307.87" height="65.867"/>
<path style="fill:#00A5AD;" d="M415.15,420.252H245.618V214.393c0-46.815,37.951-84.765,84.765-84.765l0,0
	c46.815,0,84.765,37.951,84.765,84.765L415.15,420.252L415.15,420.252z"/>
<rect x="245.618" y="221.15" style="fill:#F7BA35;" width="243.87" height="155.59"/>
<rect x="367.548" y="221.15" style="fill:#FD9702;" width="121.93" height="155.59"/>
<polygon style="fill:#FBDA35;" points="367.552,250.65 245.618,376.742 489.486,376.742 "/>
<polygon style="fill:#F7BA35;" points="367.552,250.65 367.552,376.742 489.486,376.742 "/>
<polygon style="fill:#FDE888;" points="245.618,221.147 367.552,324.029 489.486,221.147 "/>
<polygon style="fill:#FBDA35;" points="367.552,221.147 367.552,324.029 489.486,221.147 "/>
<g>
</g>
<g>
</g>
<g>
</g>
<g>
</g>
<g>
</g>
<g>
</g>
<g>
</g>
<g>
</g>
<g>
</g>
<g>
</g>
<g>
</g>
<g>
</g>
<g>
</g>
<g>
</g>
<g>
</g>
</svg>
