<?xml version="1.0" standalone="no"?>
<!DOCTYPE svg PUBLIC "-//W3C//DTD SVG 20010904//EN"
 "http://www.w3.org/TR/2001/REC-SVG-20010904/DTD/svg10.dtd">
<svg version="1.0" xmlns="http://www.w3.org/2000/svg"
 width="700.000000pt" height="700.000000pt" viewBox="0 0 700.000000 700.000000"
 preserveAspectRatio="xMidYMid meet">
<metadata>
Created by potrace 1.11, written by Peter Selinger 2001-2013
</metadata>
<g transform="translate(0.000000,700.000000) scale(0.100000,-0.100000)"
fill="#000000" stroke="none">
<path d="M1990 6984 c-328 -65 -598 -317 -680 -632 l-11 -44 -41 7 c-242 41
-479 -50 -644 -247 -36 -43 -91 -149 -115 -223 -23 -70 -24 -73 -27 -686 -2
-603 -2 -618 18 -672 24 -63 77 -124 135 -152 58 -29 277 -34 343 -9 62 23
125 84 151 144 12 28 23 50 24 50 1 0 2 -876 2 -1947 0 -1072 3 -1970 7 -1998
16 -128 98 -289 192 -380 71 -69 175 -130 281 -166 l70 -24 1465 0 1465 0 89
29 c171 56 317 181 395 340 66 132 72 182 76 576 2 190 3 350 4 355 1 6 153
10 434 11 471 0 491 2 607 58 93 45 198 151 243 247 19 41 40 97 46 124 7 34
10 379 10 1050 0 1096 2 1057 -60 1184 -43 87 -152 196 -240 239 -110 54 -146
58 -617 57 l-429 0 1 540 c1 297 -2 548 -7 558 -5 11 -15 16 -23 13 -17 -6
-17 -2 -4 44 6 19 13 50 16 69 3 18 8 43 10 55 2 11 4 55 4 96 0 248 -101 463
-295 628 -61 53 -186 120 -270 146 -229 70 -471 38 -673 -90 -29 -19 -56 -34
-60 -34 -4 0 -22 25 -40 55 -141 234 -415 379 -700 370 -115 -3 -120 -4 -228
-36 l-71 -21 -69 69 c-117 117 -244 191 -401 234 -96 26 -287 33 -383 13z
m3840 -3269 c78 -44 129 -103 148 -170 8 -28 12 -248 11 -760 l0 -720 -24 -49
c-38 -78 -83 -118 -170 -152 -11 -4 -153 -8 -315 -9 l-295 -2 1 936 c1 515 2
939 3 944 0 4 137 6 304 4 279 -2 305 -4 337 -22z"/>
</g>
</svg>
