<?xml version="1.0" encoding="iso-8859-1"?>
<!-- Generator: Adobe Illustrator 19.0.0, SVG Export Plug-In . SVG Version: 6.00 Build 0)  -->
<svg version="1.1" id="Layer_1" xmlns="http://www.w3.org/2000/svg" xmlns:xlink="http://www.w3.org/1999/xlink" x="0px" y="0px"
	 viewBox="0 0 496.68 496.68" style="enable-background:new 0 0 496.68 496.68;" xml:space="preserve">
<g>
	<polygon style="fill:#B3D8F4;" points="156.722,70 196.722,70 196.722,137 228.34,137 228.34,70 248.34,70 248.34,0 85.104,0 
		85.104,137 156.722,137 	"/>
	<polygon style="fill:#96C8EF;" points="268.34,70 268.34,137 299.958,137 299.958,70 339.958,70 339.958,137 411.576,137 
		411.576,0 248.34,0 248.34,70 	"/>
	<path style="fill:#FFA733;" d="M248.34,406.68V137H45.104v359.68H228.34v-90H248.34z M116.756,187h119.236v40H116.756V187z
		 M116.756,257h119.236v40H116.756V257z M116.756,367v-40h119.236v40H116.756z"/>
	<path style="fill:#FF9811;" d="M248.34,137v269.68h20v90h183.236V137H248.34z M379.923,367H267.646v-40h112.278V367z M379.923,297
		H267.646v-40h112.278V297z M379.923,227H267.646v-40h112.278V227z"/>
	<rect x="228.34" y="406.68" style="fill:#004FAC;" width="40" height="90"/>
	<rect x="299.958" y="70" style="fill:#004FAC;" width="40" height="67"/>
	<rect x="228.34" y="70" style="fill:#004FAC;" width="40" height="67"/>
	<rect x="156.722" y="70" style="fill:#004FAC;" width="40" height="67"/>
	<rect x="267.646" y="327" style="fill:#FF0C38;" width="112.278" height="40"/>
	<rect x="116.756" y="327" style="fill:#FF5023;" width="119.236" height="40"/>
	<rect x="267.646" y="257" style="fill:#FF0C38;" width="112.278" height="40"/>
	<rect x="116.756" y="257" style="fill:#FF5023;" width="119.236" height="40"/>
	<rect x="267.646" y="187" style="fill:#FF0C38;" width="112.278" height="40"/>
	<rect x="116.756" y="187" style="fill:#FF5023;" width="119.236" height="40"/>
</g>
<g>
</g>
<g>
</g>
<g>
</g>
<g>
</g>
<g>
</g>
<g>
</g>
<g>
</g>
<g>
</g>
<g>
</g>
<g>
</g>
<g>
</g>
<g>
</g>
<g>
</g>
<g>
</g>
<g>
</g>
</svg>
