<?xml version="1.0" encoding="iso-8859-1"?>
<!-- Generator: Adobe Illustrator 19.0.0, SVG Export Plug-In . SVG Version: 6.00 Build 0)  -->
<svg version="1.1" id="Capa_1" xmlns="http://www.w3.org/2000/svg" xmlns:xlink="http://www.w3.org/1999/xlink" x="0px" y="0px"
	 viewBox="0 0 512.004 512.004" style="enable-background:new 0 0 512.004 512.004;" xml:space="preserve">
<rect x="31.244" y="216.81" style="fill:#00A5FF;" width="449.511" height="295.194"/>
<rect x="31.244" y="216.81" style="fill:#AED9FF;" width="155.678" height="295.194"/>
<path style="fill:#BF6100;" d="M49.974,246.32h-2.353c-18.423,0-33.356-14.934-33.356-33.356v-35.71h69.066v35.71
	C83.331,231.386,68.396,246.32,49.974,246.32z"/>
<path style="fill:#FFDBA9;" d="M119.04,246.32h-2.354c-18.422,0-33.356-14.934-33.356-33.356v-35.71h69.066v35.71
	C152.396,231.386,137.462,246.32,119.04,246.32z"/>
<path style="fill:#BF6100;" d="M188.106,246.32h-2.353c-18.423,0-33.356-14.934-33.356-33.356v-35.71h69.066v35.71
	C221.462,231.386,206.528,246.32,188.106,246.32z"/>
<path style="fill:#FFDBA9;" d="M290.526,177.253v35.715c0,18.423-14.93,33.353-33.353,33.353h-2.352
	c-18.423,0-33.363-14.93-33.363-33.353v-35.715H290.526z"/>
<g>
	<path style="fill:#994C00;" d="M326.238,246.32h-2.353c-18.422,0-33.356-14.934-33.356-33.356v-35.71h69.066v35.71
		C359.594,231.386,344.659,246.32,326.238,246.32z"/>
	<path style="fill:#994C00;" d="M464.369,246.32h-2.353c-18.422,0-33.356-14.934-33.356-33.356v-35.71h69.066v35.71
		C497.725,231.386,482.792,246.32,464.369,246.32z"/>
</g>
<path style="fill:#FFC473;" d="M395.303,246.32h-2.354c-18.422,0-33.356-14.934-33.356-33.356v-35.71h69.066v35.71
	C428.659,231.386,413.725,246.32,395.303,246.32z"/>
<polygon style="fill:#E47500;" points="497.759,177.293 14.245,177.293 72.435,0 439.569,0 "/>
<rect x="128.331" y="347.24" style="fill:#FFFFFF;" width="30.021" height="38.026"/>
<rect x="267.007" y="306.212" style="fill:#AED9FF;" width="164.784" height="110.206"/>
<rect x="255.339" y="386.397" style="fill:#E47500;" width="188.13" height="30.021"/>
<path style="fill:#FFC473;" d="M290.526,177.253v35.715c0,18.423-14.93,33.353-33.353,33.353h-1.161v-69.068H290.526z"/>
<polygon style="fill:#BF6100;" points="497.759,177.293 256.012,177.293 256.012,0 439.569,0 "/>
<g>
</g>
<g>
</g>
<g>
</g>
<g>
</g>
<g>
</g>
<g>
</g>
<g>
</g>
<g>
</g>
<g>
</g>
<g>
</g>
<g>
</g>
<g>
</g>
<g>
</g>
<g>
</g>
<g>
</g>
</svg>
