<?xml version="1.0" encoding="iso-8859-1"?>
<!-- Generator: Adobe Illustrator 19.0.0, SVG Export Plug-In . SVG Version: 6.00 Build 0)  -->
<svg version="1.1" id="Layer_1" xmlns="http://www.w3.org/2000/svg" xmlns:xlink="http://www.w3.org/1999/xlink" x="0px" y="0px"
	 viewBox="0 0 512 512" style="enable-background:new 0 0 512 512;" xml:space="preserve">
<path style="fill:#C4CAD9;" d="M317,512H195c-8.291,0-15-6.709-15-15v-91c0-8.291,6.709-15,15-15h122c8.291,0,15,6.709,15,15v91
	C332,505.291,325.291,512,317,512z"/>
<path style="fill:#E6EEFF;" d="M392,326.239l-120-69.08V406c0,8.291,6.709,15,15,15h210c8.291,0,15-6.709,15-15V257.428L392,326.239
	z"/>
<path style="fill:#DAE2F2;" d="M512,406V257.428l-120,68.811V421h105C505.291,421,512,414.291,512,406z"/>
<path style="fill:#45C1F1;" d="M497,241c-245.32,0,36.614,0-210,0c-8.291,0-15,6.709-15,15v1.159l110.244,100.223
	c5.569,4.811,13.919,4.831,19.512,0L512,257.428V256C512,247.709,505.291,241,497,241z"/>
<path style="fill:#44A4EC;" d="M497,241c-58.768,0-87.096,0-99.864,0c-2.062,0-3.834,0-5.136,0v119.996
	c3.481,0,6.962-1.201,9.756-3.615L512,257.428V256C512,247.709,505.291,241,497,241z"/>
<path style="fill:#F55C4A;" d="M105,121C47.01,121,0,168.01,0,226v180c0,8.284,6.716,15,15,15h287V226c0-41.353,33.647-75,75-75
	l15-30H105z"/>
<g>
	<path style="fill:#D92C48;" d="M225,361h-90c-8.291,0-15-6.709-15-15s6.709-15,15-15h90c8.291,0,15,6.709,15,15
		S233.291,361,225,361z"/>
	<path style="fill:#D92C48;" d="M195,301h-60c-8.291,0-15-6.709-15-15s6.709-15,15-15h60c8.291,0,15,6.709,15,15
		S203.291,301,195,301z"/>
	<path style="fill:#D92C48;" d="M165,211c-8.291,0-15-6.709-15-15V15c0-8.291,6.709-15,15-15s15,6.709,15,15v181
		C180,204.291,173.291,211,165,211z"/>
</g>
<path style="fill:#F23051;" d="M180,91H75c-8.284,0-15-6.716-15-15V15c0-8.284,6.716-15,15-15h90c8.284,0,15,6.716,15,15V91z"/>
<path style="fill:#D92C48;" d="M482,241H302v-30c0-49.706,40.294-90,90-90l0,0c49.706,0,90,40.294,90,90V241z"/>
<g>
</g>
<g>
</g>
<g>
</g>
<g>
</g>
<g>
</g>
<g>
</g>
<g>
</g>
<g>
</g>
<g>
</g>
<g>
</g>
<g>
</g>
<g>
</g>
<g>
</g>
<g>
</g>
<g>
</g>
</svg>
