<?xml version="1.0" encoding="iso-8859-1"?>
<!-- Generator: Adobe Illustrator 19.0.0, SVG Export Plug-In . SVG Version: 6.00 Build 0)  -->
<svg version="1.1" id="Layer_1" xmlns="http://www.w3.org/2000/svg" xmlns:xlink="http://www.w3.org/1999/xlink" x="0px" y="0px"
	 viewBox="0 0 511.999 511.999" style="enable-background:new 0 0 511.999 511.999;" xml:space="preserve">
<rect x="59.852" y="345.248" style="fill:#0071CE;" width="111.727" height="166.751"/>
<rect x="59.852" y="345.248" style="opacity:0.1;enable-background:new    ;" width="111.727" height="114.247"/>
<rect x="340.419" y="345.248" style="fill:#0071CE;" width="111.727" height="166.751"/>
<rect x="340.419" y="345.248" style="opacity:0.1;enable-background:new    ;" width="111.727" height="114.247"/>
<path style="fill:#0071CE;" d="M452.147,427.663V83.782C452.147,37.701,414.444,0,368.365,0h-224.73
	C97.553,0,59.852,37.701,59.852,83.782v343.882h392.294V427.663z"/>
<path style="fill:#00B3E3;" d="M368.365,0h-224.73C97.553,0,59.852,37.701,59.852,83.782V191.05h392.293V83.782
	C452.147,37.701,414.444,0,368.365,0z"/>
<g style="opacity:0.1;">
	<path d="M385.899,242.451c0-9.239-7.559-16.798-16.797-16.798H142.898c-9.238,0-16.797,7.559-16.797,16.798v126.98
		c0,9.238,7.559,16.797,16.797,16.797h226.204c9.238,0,16.797-7.559,16.797-16.797V242.451z"/>
</g>
<g style="opacity:0.1;">
	<path d="M365.822,65.337c0-9.237-7.559-16.797-16.797-16.797H162.976c-9.238,0-16.797,7.56-16.797,16.797v74.015
		c0,9.239,7.559,16.798,16.797,16.798h186.05c9.238,0,16.797-7.559,16.797-16.798V65.337H365.822z"/>
</g>
<path style="fill:#0071CE;" d="M301.166,99.672h-90.33c-4.578,0-8.288-3.71-8.288-8.288s3.71-8.288,8.288-8.288h90.33
	c4.578,0,8.288,3.71,8.288,8.288S305.743,99.672,301.166,99.672z"/>
<path style="fill:#FFFFFF;" d="M320.405,260.492H191.587c-4.578,0-8.288,3.71-8.288,8.288v74.323c0,4.578,3.71,8.288,8.288,8.288
	h128.818c4.578,0,8.288-3.71,8.288-8.288V268.78C328.693,264.202,324.982,260.492,320.405,260.492z M293.972,277.068l-37.976,26.412
	l-37.976-26.412H293.972z M199.876,334.815v-50.174l51.388,35.74c1.422,0.99,3.077,1.484,4.732,1.484
	c1.655,0,3.31-0.494,4.732-1.484l51.388-35.74v50.174H199.876z"/>
<g>
</g>
<g>
</g>
<g>
</g>
<g>
</g>
<g>
</g>
<g>
</g>
<g>
</g>
<g>
</g>
<g>
</g>
<g>
</g>
<g>
</g>
<g>
</g>
<g>
</g>
<g>
</g>
<g>
</g>
</svg>
